<svg width="24" height="24" viewBox="0 0 24 24" fill="none" xmlns="http://www.w3.org/2000/svg">
<g clip-path="url(#clip0)">
<path d="M15.7571 17.6312L12.6636 20.7248C12.2974 21.0909 11.7039 21.0909 11.3377 20.7248L8.24414 17.6312C7.65355 17.0406 8.07184 16.0307 8.90707 16.0308H10.9056L10.9055 12.0931H6.96789V14.0916C6.96789 14.9268 5.95809 15.3451 5.36746 14.7545L2.27387 11.6609C1.90773 11.2948 1.90773 10.7012 2.27387 10.3351L5.36746 7.24149C5.95805 6.65091 6.96789 7.06919 6.96789 7.90442V9.90556H10.9055V5.9679H8.90438C8.06914 5.9679 7.65086 4.95809 8.24145 4.36747L11.335 1.27387C11.7012 0.907734 12.2947 0.907734 12.6609 1.27387L15.7545 4.36747C16.345 4.95805 15.9268 5.9679 15.0915 5.9679H13.093V9.90556H17.0307V7.90704C17.0307 7.07181 18.0405 6.65352 18.6311 7.24411L21.7246 10.3377C22.0908 10.7038 22.0908 11.2974 21.7246 11.6635L18.6311 14.7571C18.0405 15.3477 17.0306 14.9294 17.0307 14.0942V12.0931H13.093V16.0307H15.0942C15.9295 16.0307 16.3477 17.0405 15.7571 17.6312Z" fill="black" fill-opacity="0.5413"/>
</g>
<defs>
<clipPath id="clip0">
<rect width="20" height="20" fill="white" transform="translate(2 1)"/>
</clipPath>
</defs>
</svg>
